<?xml version="1.0" encoding="UTF-8" standalone="no"?><!DOCTYPE svg PUBLIC "-//W3C//DTD SVG 1.1//EN" "http://www.w3.org/Graphics/SVG/1.1/DTD/svg11.dtd"><svg width="100%" height="100%" viewBox="0 0 256 104" version="1.1" xmlns="http://www.w3.org/2000/svg" xmlns:xlink="http://www.w3.org/1999/xlink" xml:space="preserve" xmlns:serif="http://www.serif.com/" style="fill-rule:evenodd;clip-rule:evenodd;stroke-linecap:round;stroke-linejoin:round;stroke-miterlimit:1.5;"><g id="Layer-1" serif:id="Layer 1"><path d="M4,4l19.84,0l29.76,48l19.84,-32l19.84,32l29.76,-48l79.36,0l-9.92,16l-39.68,0l9.92,16l19.84,0l-9.92,16l39.68,0l-9.92,16l-39.68,0l-9.92,-16l-39.68,0l-9.92,16l-19.84,0l-9.92,-16l-9.92,16l-19.84,0l-39.68,-64Z" style="fill:#04c2ff;stroke:#f2f2f2;stroke-width:1px;"/><path d="M212.32,84l-9.92,-16l-39.68,0l9.92,16l39.68,0Z" style="fill:#777;stroke:#f2f2f2;stroke-width:1px;"/><path d="M202.4,68l9.92,16l9.92,-16l-9.92,-16l-9.92,16Z" style="fill:#aaa;stroke:#f2f2f2;stroke-width:1px;"/><path d="M232.16,52l9.92,-16l-27.037,0l-32.483,0l-9.92,16l59.52,0" style="fill:#ccc;stroke:#f2f2f2;stroke-width:1px;"/><path d="M202.4,4l9.92,16l-9.92,16l-9.92,-16l9.92,-16Z" style="fill:#aaa;stroke:#f2f2f2;stroke-width:1px;"/><path d="M83.36,68l-9.92,-16l-9.92,16l9.92,16l9.92,-16Z" style="fill:#aaa;stroke:#f2f2f2;stroke-width:1px;"/><path d="M132.96,20l-9.92,16l19.84,0l-9.92,-16" style="fill:#777;stroke:#f2f2f2;stroke-width:1px;"/><path d="M192.48,20l-39.68,0l9.92,16l39.68,0l-9.92,-16Z" style="fill:#777;stroke:#f2f2f2;stroke-width:1px;"/><path d="M242.08,36l9.92,16l-9.92,16l-9.92,-16l9.92,-16Z" style="fill:#aaa;stroke:#f2f2f2;stroke-width:1px;"/><path d="M212.32,52l9.92,16l19.84,0l-9.92,-16l-19.84,0Z" style="fill:#777;stroke:#f2f2f2;stroke-width:1px;"/><path d="M142.88,68l-59.52,0l-9.92,16l59.52,0l9.92,-16Z" style="fill:#ccc;stroke:#f2f2f2;stroke-width:1px;"/><path d="M113.12,52l9.92,16l-9.92,16l-9.92,-16l9.92,-16Z" style="fill:#aaa;stroke:#f2f2f2;stroke-width:1px;"/><path d="M162.72,68l-9.92,-16l-39.68,0l9.92,16l39.68,0Z" style="fill:#777;stroke:#f2f2f2;stroke-width:1px;"/><path d="M83.36,68l9.92,16l19.84,0l-9.92,-16l-19.84,0Z" style="fill:#777;stroke:#f2f2f2;stroke-width:1px;"/><path d="M142.88,68l9.92,16l-9.92,16l-9.92,-16l9.92,-16Z" style="fill:#aaa;stroke:#f2f2f2;stroke-width:1px;"/><path d="M73.44,84l-19.84,0l-9.92,-16l19.84,0l9.92,16Z" style="fill:#777;stroke:#f2f2f2;stroke-width:1px;"/><path d="M142.88,100l-9.92,-16l-59.52,0l9.92,16l59.52,0Z" style="fill:#777;stroke:#f2f2f2;stroke-width:1px;"/><path d="M23.84,4l19.84,0l19.84,32l-9.92,16l-29.76,-48Z" style="fill:#aaa;stroke:#f2f2f2;stroke-width:1px;"/><path d="M73.44,20l19.84,0l9.92,16l-9.92,16l-19.84,-32Z" style="fill:#aaa;stroke:#f2f2f2;stroke-width:1px;"/></g></svg>