<?xml version="1.0" encoding="UTF-8"?>
<svg data-name="Layer 1" viewBox="0 0 336.6 132.5" xmlns="http://www.w3.org/2000/svg">
<defs>
<style>.cls-1{fill:#fff;}.cls-2{fill:#ccc;}.cls-3{fill:#999;}.cls-4{fill:#777;}.cls-5{fill:#04c2ff;}.cls-6{fill:none;}</style>
</defs>
<title>Artboard 1</title>
<path class="cls-1" d="M319.27,47H267.92L280.6,27.25,267.27,7H162.73L137,46.34,124.27,27H97.73L85,46.34,59.27,7H6.08L71.73,108H97.57l13.16,20h78.54l13.15-20.48.17-.27L190.24,88h24.49l13,20h52.54l13-20h26L332.6,67.25Zm-1.2,1L305.4,67H228.92l12.34-19,0,0Zm-102.8-1L202.92,28h50.81l12.35,19ZM279.4,27.25,267,46.58,254.6,27.5,267.16,8.66ZM123.73,28,136.4,47.25,124,66.09,98.93,28Zm-65-20L84.4,47.25,72,66.09,34.25,8Zm13.54,99L59.92,88H84.73l12.19,19ZM85.59,87.5,98,68.18,110.41,87.5,97.92,106.7Zm63.24,19.17-24.78.16L111.92,88h24.7l0,0Zm1.17,0-12.48-19L150,68.42,162.4,87.5ZM163.27,88h24.48l-12,18.5-24.56.16Zm-40.4,18.84L98.93,107,111,88.42ZM111.27,127,98.76,108l50.73-.33h1l25.21-.16L188.09,127Zm90.14-19.75L189,126.57,176.59,107,189,88h.1ZM163.27,87,150.92,68h50.81l12.35,19Zm39-20H149.73l-13,20H111.27L98,66.32,84.73,87H59.27L7.92,8H33L72,67.91l26-39.5,26,39.5,13-19.75L163.27,8H266.4L253.73,27H201.08l13.65,21h25.35l-13,20h51.67l-12,18.5-51.46.5Zm26,40L215.92,88l50.81-.49L279.09,107Zm51.73-.43L267.59,87,280,68H280l12.37,19.5ZM293.27,87l-12-19H306v-.07L318.09,87ZM319,86.57,306.6,67,319,48.41l12.4,18.84Z"/>
<polygon class="cls-2" points="305.4 66.99 305.41 67 228.92 67 241.26 48.02 241.22 48 318.07 48"/>
<polygon class="cls-2" points="187.75 88 175.73 106.5 151.17 106.66 163.27 88"/>
<polygon class="cls-2" points="122.87 106.84 98.93 106.99 111 88.42"/>
<polygon class="cls-3" points="279.4 27.25 267 46.58 254.6 27.5 267.16 8.66"/>
<polygon class="cls-3" points="331.4 67.25 319 86.57 306.6 67.01 319 48.41"/>
<polygon class="cls-3" points="292.41 87.5 280 106.57 267.59 87 279.95 68 280.04 68"/>
<polygon class="cls-3" points="201.41 107.25 189 126.57 176.59 107 188.95 88 189.05 88"/>
<polygon class="cls-3" points="136.4 47.25 124 66.09 98.93 28 123.73 28"/>
<polygon class="cls-3" points="162.4 87.5 150 106.63 137.52 87.62 150 68.42"/>
<polygon class="cls-3" points="110.41 87.5 97.92 106.7 85.59 87.5 98 68.18"/>
<polygon class="cls-3" points="84.4 47.25 72 66.09 34.25 8 58.73 8"/>
<polygon class="cls-4" points="266.08 47 215.27 47 202.92 28 253.73 28"/>
<polygon class="cls-4" points="318.09 87 293.27 87 281.23 68 306 68 306 67.93"/>
<polygon class="cls-4" points="279.09 107 228.27 107 215.92 87.99 266.73 87.5"/>
<polygon class="cls-4" points="214.08 87 163.27 87 150.92 68 201.73 68"/>
<polygon class="cls-4" points="188.09 127 111.27 127 98.76 108 149.49 107.67 150.52 107.66 175.73 107.5"/>
<polygon class="cls-4" points="148.83 106.67 124.05 106.83 111.92 88 136.62 88 136.58 88.02"/>
<polygon class="cls-4" points="96.92 107 72.27 107 59.92 88 84.73 88"/>
<path class="cls-5" d="M227.08,68l13-20H214.73L201.08,27h52.65L266.4,8H163.27L137,48.16,124,67.91,98,28.41,72,67.91,33,8H7.92L59.27,87H84.73L98,66.32,111.27,87h25.46l13-20h52.54l13,20,51.46-.5,12-18.5Zm-65-20L176,26.58l0,0L189.92,48Z"/>
<path class="cls-1" d="M176,26.58v0L162.11,48H190ZM164,47,176,28.42,188.11,47Z"/>
<polygon class="cls-3" points="188.11 47 163.95 47 176.03 28.42"/>
<line class="cls-6" x1="242.43" x2="240.59" y1="48" y2="47"/>
</svg>
